<svg xmlns="http://www.w3.org/2000/svg" height="1200" width="1600" version="1.1" xmlns:xlink="http://www.w3.org/1999/xlink" xmlns:svgjs="http://svgjs.com/svgjs"><rect fill="#effaff" width="1600" height="1200"></rect><g><path d="M1358.26 666.13C1356.64 649.16 1351.87 632.09 1344.53 616.74 1326.04 578.8 1294.09 549.05 1260.44 523.59 1253 517.97 1245.28 512.15 1241.56 503.66 1233.07 484.12 1239.94 455.52 1235.17 433.97 1230.98 414.71 1223.92 396.21 1214.39 378.95 1195.13 344.25 1166.24 316.03 1134.11 293.62 1067.94 247.57 986.32 222.21 906.81 213.34 780.67 199.42 650.33 220.4 535.54 274.93 493.2 295.05 456.88 326.8 433.04 367.89 407.11 412.52 399 468.96 417.88 517.11 367.06 529.31 314.91 544.28 274.01 577.08 239.11 605.11 212.99 652.21 217.75 697.88 223.19 748.89 270.29 776.16 315.96 788.55 504.45 840.61 705.92 836.03 899.75 827.74 1005.39 823.16 1111.03 816.49 1215.25 798.85 1262.73 790.75 1314.69 777.49 1341.67 737.64 1355.78 716.85 1360.55 691.3 1358.26 666.13Z" fill="#206788" opacity="1" stroke-width="2" stroke="none"></path></g><g><path d="M978.74 432.36L989.6 443.23" stroke="#333333" stroke-width="2" stroke-linecap="round" stroke-linejoin="round" opacity="1" fill="none"></path><path d="M989.6 432.36L978.74 443.23" stroke="#333333" stroke-width="2" stroke-linecap="round" stroke-linejoin="round" opacity="1" fill="none"></path><path d="M910.81 445.68L921.68 456.54" stroke="#333333" stroke-width="2" stroke-linecap="round" stroke-linejoin="round" opacity="1" fill="none"></path><path d="M921.68 445.68L910.81 456.54" stroke="#333333" stroke-width="2" stroke-linecap="round" stroke-linejoin="round" opacity="1" fill="none"></path><path d="M1008.36 335.1L1019.22 345.96" stroke="#333333" stroke-width="2" stroke-linecap="round" stroke-linejoin="round" opacity="1" fill="none"></path><path d="M1019.22 335.1L1008.36 345.96" stroke="#333333" stroke-width="2" stroke-linecap="round" stroke-linejoin="round" opacity="1" fill="none"></path><path d="M993.23 262.33L1004.09 273.19" stroke="#333333" stroke-width="2" stroke-linecap="round" stroke-linejoin="round" opacity="1" fill="none"></path><path d="M1004.09 262.33L993.23 273.19" stroke="#333333" stroke-width="2" stroke-linecap="round" stroke-linejoin="round" opacity="1" fill="none"></path><path d="M790.13 292.37L800.99 303.23" stroke="#333333" stroke-width="2" stroke-linecap="round" stroke-linejoin="round" opacity="1" fill="none"></path><path d="M800.99 292.37L790.13 303.23" stroke="#333333" stroke-width="2" stroke-linecap="round" stroke-linejoin="round" opacity="1" fill="none"></path><path d="M736.96 323.48L747.82 334.35" stroke="#333333" stroke-width="2" stroke-linecap="round" stroke-linejoin="round" opacity="1" fill="none"></path><path d="M747.82 323.48L736.96 334.35" stroke="#333333" stroke-width="2" stroke-linecap="round" stroke-linejoin="round" opacity="1" fill="none"></path><path d="M653.11 375.19L663.97 386.05" stroke="#333333" stroke-width="2" stroke-linecap="round" stroke-linejoin="round" opacity="1" fill="none"></path><path d="M663.97 375.19L653.11 386.05" stroke="#333333" stroke-width="2" stroke-linecap="round" stroke-linejoin="round" opacity="1" fill="none"></path><path d="M631.27 269.65L642.14 280.52" stroke="#333333" stroke-width="2" stroke-linecap="round" stroke-linejoin="round" opacity="1" fill="none"></path><path d="M642.14 269.65L631.27 280.52" stroke="#333333" stroke-width="2" stroke-linecap="round" stroke-linejoin="round" opacity="1" fill="none"></path><path d="M808.25 285.11L832.13 261.23" stroke="#333333" stroke-width="2" stroke-linecap="round" stroke-linejoin="round" opacity="1" fill="none"></path></g><g><path d="M906.81 612.99H897.21C897.21 581.99 869.76 557.27 836.37 557.27H828.59V549.31C828.59 514.54 797.95 486.47 759.98 486.47 722.01 486.47 691.37 514.54 691.37 549.31V569.84C664.83 569.84 643.79 589.53 643.79 613.41H631.9C578.38 613.41 534.47 653.22 534.47 702.66 534.47 751.67 577.92 791.9 631.9 791.9H906.36C959.87 791.9 1003.79 752.09 1003.79 702.66 1003.79 653.22 960.33 612.99 906.81 612.99Z" fill="#3d84a8" stroke="#333333" stroke-width="2" stroke-linecap="round" stroke-linejoin="round" opacity="1"></path><path d="M767.76 660.34C728.42 660.34 696.4 689.67 696.4 725.7 696.4 761.73 728.42 791.06 767.76 791.06H1179.44C1218.78 791.06 1250.8 761.73 1250.8 725.7 1250.8 689.67 1218.78 660.34 1179.44 660.34H1072.86C1095.27 660.34 1113.11 644 1113.11 623.47 1113.11 602.94 1095.27 586.6 1072.86 586.6H877.54C855.12 586.6 837.28 602.94 837.28 623.47 837.28 644 855.12 660.34 877.54 660.34H806.18" fill="#3d84a8" opacity="1" stroke-width="2" stroke="none"></path><path d="M767.76 660.34C728.42 660.34 696.4 689.67 696.4 725.7 696.4 761.73 728.42 791.06 767.76 791.06H1179.44C1218.78 791.06 1250.8 761.73 1250.8 725.7 1250.8 689.67 1218.78 660.34 1179.44 660.34H1072.86C1095.27 660.34 1113.11 644 1113.11 623.47 1113.11 602.94 1095.27 586.6 1072.86 586.6H877.54C855.12 586.6 837.28 602.94 837.28 623.47 837.28 644 855.12 660.34 877.54 660.34H806.18" stroke="#333333" stroke-width="2" stroke-linecap="round" stroke-linejoin="round" opacity="1" fill="none"></path></g><g><path d="M288.51 414.4L320.59 547.93H256.2L288.51 414.4Z" fill="#46cdcf" stroke="#333333" stroke-width="2" stroke-linecap="round" stroke-linejoin="round" opacity="1"></path><path d="M288.51 793.74V514.04" stroke="#333333" stroke-width="2" stroke-linecap="round" stroke-linejoin="round" opacity="1" fill="none"></path></g><g><path d="M514.92 303.83H577.17V512.77H514.92L514.92 303.83Z" fill="#48466d" stroke="#333333" stroke-width="2" stroke-linecap="round" stroke-linejoin="round" opacity="1"></path><path d="M559.1 385.14H533.08" stroke="#333333" stroke-width="2" stroke-linecap="round" stroke-linejoin="round" opacity="1" fill="none"></path><path d="M559.1 359.4H533.08" stroke="#333333" stroke-width="2" stroke-linecap="round" stroke-linejoin="round" opacity="1" fill="none"></path><path d="M559.1 333.66H533.08" stroke="#333333" stroke-width="2" stroke-linecap="round" stroke-linejoin="round" opacity="1" fill="none"></path><path d="M532.58 793.35H580.94V499.55H514.92L428.08 499.55V793.35H502.37" fill="#9cdec9" opacity="1" stroke-width="2" stroke="none"></path><path d="M532.58 793.35H580.94V499.55H514.92L428.08 499.55V793.35H502.37" stroke="#333333" stroke-width="2" stroke-linecap="round" stroke-linejoin="round" opacity="1" fill="none"></path><path d="M533.25 581.96H559.1V624.04H533.25V581.96Z" fill="#0c1518" stroke="#333333" stroke-width="2" stroke-linecap="round" stroke-linejoin="round" opacity="1"></path><path d="M559.1 561.53L533.08 561.53" stroke="#333333" stroke-width="2" stroke-linecap="round" stroke-linejoin="round" opacity="1" fill="none"></path><path d="M559.1 535.92H533.08" stroke="#333333" stroke-width="2" stroke-linecap="round" stroke-linejoin="round" opacity="1" fill="none"></path><path d="M344.83 449.98V369.89 347.96 254.66L440.63 254.66 440.63 553.35V794.44H344.83V499.55" fill="#9cdec9" opacity="1" stroke-width="2" stroke="none"></path><path d="M344.83 449.98V369.89 347.96 254.66L440.63 254.66 440.63 553.35V794.44H344.83V499.55" stroke="#333333" stroke-width="2" stroke-linecap="round" stroke-linejoin="round" opacity="1" fill="none"></path><path d="M344.83 486.75L344.83 460.74" stroke="#333333" stroke-width="2" stroke-linecap="round" stroke-linejoin="round" opacity="1" fill="none"></path><path d="M423.81 385.14H361.64" stroke="#333333" stroke-width="2" stroke-linecap="round" stroke-linejoin="round" opacity="1" fill="none"></path><path d="M423.81 359.4H361.64" stroke="#333333" stroke-width="2" stroke-linecap="round" stroke-linejoin="round" opacity="1" fill="none"></path><path d="M423.81 333.66H397.96" stroke="#333333" stroke-width="2" stroke-linecap="round" stroke-linejoin="round" opacity="1" fill="none"></path><path d="M423.81 410.88H397.96" stroke="#333333" stroke-width="2" stroke-linecap="round" stroke-linejoin="round" opacity="1" fill="none"></path><path d="M423.81 308.19H397.96" stroke="#333333" stroke-width="2" stroke-linecap="round" stroke-linejoin="round" opacity="1" fill="none"></path><path d="M423.81 282.44H397.96" stroke="#333333" stroke-width="2" stroke-linecap="round" stroke-linejoin="round" opacity="1" fill="none"></path><path d="M387.5 308.19H361.64" stroke="#333333" stroke-width="2" stroke-linecap="round" stroke-linejoin="round" opacity="1" fill="none"></path><path d="M387.5 282.44H361.64" stroke="#333333" stroke-width="2" stroke-linecap="round" stroke-linejoin="round" opacity="1" fill="none"></path><path d="M734.3 793.35H688.7L688.7 506.77H778.22L778.22 793.35H754.71" fill="#9cdec9" opacity="1" stroke-width="2" stroke="none"></path><path d="M734.3 793.35H688.7L688.7 506.77H778.22L778.22 793.35H754.71" stroke="#333333" stroke-width="2" stroke-linecap="round" stroke-linejoin="round" opacity="1" fill="none"></path><path d="M765.76 544.91V528.02H739.9V570.11H765.76V551.72" fill="#0c1518" opacity="1" stroke-width="2" stroke="none"></path><path d="M765.76 544.91V528.02H739.9V570.11H765.76V551.72" stroke="#333333" stroke-width="2" stroke-linecap="round" stroke-linejoin="round" opacity="1" fill="none"></path><path d="M706.27 528.02H732.12V570.11H706.27V528.02Z" fill="#0c1518" stroke="#333333" stroke-width="2" stroke-linecap="round" stroke-linejoin="round" opacity="1"></path><path d="M739.9 581.96H765.76V624.04H739.9V581.96Z" fill="#0c1518" stroke="#333333" stroke-width="2" stroke-linecap="round" stroke-linejoin="round" opacity="1"></path><path d="M706.27 581.96H732.12V624.04H706.27V581.96Z" fill="#48466d" stroke="#333333" stroke-width="2" stroke-linecap="round" stroke-linejoin="round" opacity="1"></path><path d="M641.26 793.35H693.89L693.89 418.24 577.17 418.24V649.92 690.65 793.35H589.47" fill="#9cdec9" opacity="1" stroke-width="2" stroke="none"></path><path d="M641.26 793.35H693.89L693.89 418.24 577.17 418.24V649.92 690.65 793.35H589.47" stroke="#333333" stroke-width="2" stroke-linecap="round" stroke-linejoin="round" opacity="1" fill="none"></path><path d="M641.76 528.02H667.62V570.11H641.76V528.02Z" fill="#48466d" stroke="#333333" stroke-width="2" stroke-linecap="round" stroke-linejoin="round" opacity="1"></path><path d="M667.62 507.73L641.76 507.73" stroke="#333333" stroke-width="2" stroke-linecap="round" stroke-linejoin="round" opacity="1" fill="none"></path><path d="M667.62 481.98H641.76" stroke="#333333" stroke-width="2" stroke-linecap="round" stroke-linejoin="round" opacity="1" fill="none"></path><path d="M667.62 456.24L641.76 456.24" stroke="#333333" stroke-width="2" stroke-linecap="round" stroke-linejoin="round" opacity="1" fill="none"></path><path d="M629.38 507.73H603.36" stroke="#333333" stroke-width="2" stroke-linecap="round" stroke-linejoin="round" opacity="1" fill="none"></path><path d="M629.38 481.98H603.36" stroke="#333333" stroke-width="2" stroke-linecap="round" stroke-linejoin="round" opacity="1" fill="none"></path><path d="M629.38 456.24H603.36" stroke="#333333" stroke-width="2" stroke-linecap="round" stroke-linejoin="round" opacity="1" fill="none"></path></g><g><path d="M1226.69 791.45H1028.34V750.02C1028.34 750.02 1060.93 698.08 1127.79 698.08 1194.64 698.08 1227.24 750.02 1227.24 750.02L1226.69 791.45Z" fill="#46cdcf" stroke="#333333" stroke-width="2" stroke-linecap="round" stroke-linejoin="round" opacity="1"></path></g><g><path d="M1299.81 717.99H1268.01 1267.91V717.89L1299.71 626.37 1299.81 626.27C1299.81 626.27 1299.91 626.27 1299.91 626.37L1331.71 717.89V717.99C1331.71 717.99 1331.71 717.99 1331.61 717.99H1309.63" fill="#46cdcf" opacity="1" stroke-width="2" stroke="none"></path><path d="M1299.81 717.99H1268.01 1267.91V717.89L1299.71 626.37 1299.81 626.27C1299.81 626.27 1299.91 626.27 1299.91 626.37L1331.71 717.89V717.99C1331.71 717.99 1331.71 717.99 1331.61 717.99H1309.63" stroke="#333333" stroke-width="2" stroke-linecap="round" stroke-linejoin="round" opacity="1" fill="none"></path><path d="M1299.81 794.63V684.24" stroke="#333333" stroke-width="2" stroke-linecap="round" stroke-linejoin="round" opacity="1" fill="none"></path></g><g><path d="M1019.04 706.8L1027.71 696.9H1008.47L967 744.65H825.43C821.43 744.65 818.15 747.89 818.15 751.94 818.15 755.94 821.39 759.22 825.43 759.22H835.34 973.57L1011.61 715.47" fill="#46cdcf" opacity="1" stroke-width="2" stroke="none"></path><path d="M1019.04 706.8L1027.71 696.9H1008.47L967 744.65H825.43C821.43 744.65 818.15 747.89 818.15 751.94 818.15 755.94 821.39 759.22 825.43 759.22H835.34 973.57L1011.61 715.47" stroke="#333333" stroke-width="2" stroke-linecap="round" stroke-linejoin="round" opacity="1" fill="none"></path><path d="M1013.33 713.28L1017.42 708.66" stroke="#333333" stroke-width="2" stroke-linecap="round" stroke-linejoin="round" opacity="1" fill="none"></path><path d="M911.14 744.65L954.04 696.85H1008.47L967 744.65H911.14Z" fill="#9cdec9" stroke="#333333" stroke-width="2" stroke-linecap="round" stroke-linejoin="round" opacity="1"></path><path d="M835.34 791.37V759.22" stroke="#333333" stroke-width="2" stroke-linecap="round" stroke-linejoin="round" opacity="1" fill="none"></path><path d="M973.57 791.37V759.22" stroke="#333333" stroke-width="2" stroke-linecap="round" stroke-linejoin="round" opacity="1" fill="none"></path><path d="M967 744.65L970.71 752.94" stroke="#333333" stroke-width="2" stroke-linecap="round" stroke-linejoin="round" opacity="1" fill="none"></path></g><g><path d="M1254.01 839.3H1313.14C1340.3 839.3 1362.65 817.3 1362.65 789.79H1054.94 539.56 272.07C252.82 789.79 237.35 805.26 237.35 824.52 237.35 843.77 252.82 859.24 272.07 859.24H519.62C491.43 859.24 468.39 882.28 468.39 910.47 468.39 938.66 491.43 961.7 519.62 961.7H877.19 915.69 1218.25C1236.47 961.7 1250.91 946.91 1250.91 929.04 1250.91 910.81 1236.13 896.37 1218.25 896.37H1094.48 1027.78C1011.96 896.37 999.24 883.65 999.24 867.84 999.24 852.02 1011.96 839.3 1027.78 839.3H1055.28 1094.48 1226.16" fill="#0c1518" opacity="1" stroke-width="2" stroke="none"></path><path d="M1254.01 839.3H1313.14C1340.3 839.3 1362.65 817.3 1362.65 789.79H1054.94 539.56 272.07C252.82 789.79 237.35 805.26 237.35 824.52 237.35 843.77 252.82 859.24 272.07 859.24H519.62C491.43 859.24 468.39 882.28 468.39 910.47 468.39 938.66 491.43 961.7 519.62 961.7H877.19 915.69 1218.25C1236.47 961.7 1250.91 946.91 1250.91 929.04 1250.91 910.81 1236.13 896.37 1218.25 896.37H1094.48 1027.78C1011.96 896.37 999.24 883.65 999.24 867.84 999.24 852.02 1011.96 839.3 1027.78 839.3H1055.28 1094.48 1226.16" stroke="#333333" stroke-width="2" stroke-linecap="round" stroke-linejoin="round" opacity="1" fill="none"></path></g></svg>